<svg xmlns="http://www.w3.org/2000/svg" viewBox="0 0 322.78 106.66"><defs><style>.cls-1{fill:#4d4d4d;}.cls-2{fill:#b3b3b3;}.cls-3{fill:gray;}.cls-4{fill:#444;}.cls-5{fill:#c1272d;}.cls-6{fill:#ccc;}.cls-7{fill:#999;}.cls-8{fill:#666;}.cls-9{fill:#ef1209;}</style></defs><title>logo - horizontal</title><g id="Layer_2" data-name="Layer 2"><g id="Layer_1-2" data-name="Layer 1"><path class="cls-1" d="M130.36,2.76H99.42V40.52h30.94a6.8,6.8,0,0,0,6.82-6.82V9.58a6.57,6.57,0,0,0-2-4.82A6.58,6.58,0,0,0,130.36,2.76Zm1.15,30.94a1.16,1.16,0,0,1-1.15,1.15H106.24a1.16,1.16,0,0,1-1.15-1.15V9.58a1.16,1.16,0,0,1,1.15-1.15h24.12a1.16,1.16,0,0,1,1.15,1.15Z"/><path class="cls-1" d="M165.92,10.1H141.79v5.66h24.12a1.16,1.16,0,0,1,1.15,1.15v5.56H141.79V33.7a6.81,6.81,0,0,0,6.82,6.82h24.12V16.92a6.8,6.8,0,0,0-6.82-6.82Zm1.15,24.75H148.61a1.16,1.16,0,0,1-1.15-1.15V28.14h19.61Z"/><path class="cls-1" d="M221.71,10.1H182.86V.14h-5.66V33.7A6.8,6.8,0,0,0,184,40.52h11.33V34.85H184a1.16,1.16,0,0,1-1.15-1.15V15.76h38.86a1.16,1.16,0,0,1,1.15,1.15v5.56H197.59V33.7a6.81,6.81,0,0,0,6.82,6.82h24.12V16.92a6.8,6.8,0,0,0-6.82-6.82Zm1.15,24.75H204.41a1.17,1.17,0,0,1-1.15-1.15V28.14h19.61Z"/><path class="cls-1" d="M130.36,46.87H106.24a6.81,6.81,0,0,0-6.82,6.82v8.08a6.8,6.8,0,0,0,6.82,6.82h24.12a1.16,1.16,0,0,1,1.15,1.15v8.08A1.16,1.16,0,0,1,130.36,79H106.24a1.16,1.16,0,0,1-1.15-1.15v-2.2H99.42v2.2a6.81,6.81,0,0,0,6.82,6.82h24.12a6.8,6.8,0,0,0,6.82-6.82V69.73a6.8,6.8,0,0,0-6.82-6.82H106.24a1.16,1.16,0,0,1-1.15-1.15V53.69a1.16,1.16,0,0,1,1.15-1.15h24.12a1.16,1.16,0,0,1,1.15,1.15v2.2h5.66v-2.2a6.8,6.8,0,0,0-6.82-6.82Z"/><path class="cls-1" d="M147.48,78.62a1.11,1.11,0,0,1-.34-.81V61a1.16,1.16,0,0,1,1.15-1.15h24V54.21h-24A6.8,6.8,0,0,0,141.48,61V77.81a6.81,6.81,0,0,0,6.82,6.82h24.12V79H148.3A1.11,1.11,0,0,1,147.48,78.62Z"/><rect class="cls-1" x="176.93" y="54.21" width="5.66" height="30.42"/><rect class="cls-1" x="176.93" y="44.25" width="5.66" height="5.66"/><path class="cls-1" d="M246.26,54.21H222.13V79H193.55a1.16,1.16,0,0,1-1.15-1.15V72.25h25.28V61a6.81,6.81,0,0,0-6.82-6.82h-17.3A6.8,6.8,0,0,0,186.74,61V77.81a6.81,6.81,0,0,0,6.82,6.82H227.8V61A1.16,1.16,0,0,1,229,59.87h17.3A1.17,1.17,0,0,1,247.41,61v23.6h5.66V61a6.81,6.81,0,0,0-6.82-6.82ZM192.4,61a1.16,1.16,0,0,1,1.15-1.15h17.3A1.16,1.16,0,0,1,212,61v5.56H192.4Z"/><path class="cls-1" d="M262.59,78.62a1.11,1.11,0,0,1-.34-.81V61a1.16,1.16,0,0,1,1.15-1.15h24V54.21h-24A6.8,6.8,0,0,0,256.59,61V77.81a6.81,6.81,0,0,0,6.82,6.82h24.12V79H263.4A1.11,1.11,0,0,1,262.59,78.62Z"/><path class="cls-1" d="M315.32,54.21H298A6.81,6.81,0,0,0,291.2,61V77.81A6.81,6.81,0,0,0,298,84.63h24.12V79H298a1.16,1.16,0,0,1-1.15-1.15V72.25h25.28V61a6.8,6.8,0,0,0-6.82-6.82Zm1.16,12.38H296.86V61A1.16,1.16,0,0,1,298,59.87h17.3A1.17,1.17,0,0,1,316.47,61Z"/><path class="cls-2" d="M55.48,3.62V22.38A3.53,3.53,0,0,1,52,25.92H33.27a3.53,3.53,0,0,1-3.53-3.54V3.62A3.53,3.53,0,0,1,33.27.08H52A3.53,3.53,0,0,1,55.48,3.62Z"/><path class="cls-2" d="M25.94,33.17V51.93a3.53,3.53,0,0,1-3.53,3.54H3.72A3.53,3.53,0,0,1,.2,51.93V33.17a3.53,3.53,0,0,1,3.53-3.54H22.41A3.53,3.53,0,0,1,25.94,33.17Z"/><path class="cls-3" d="M85,3.62V22.38a3.53,3.53,0,0,1-3.53,3.54H62.81a3.53,3.53,0,0,1-3.53-3.54V3.62A3.53,3.53,0,0,1,62.81.08H81.5A3.53,3.53,0,0,1,85,3.62Z"/><path class="cls-3" d="M55.48,33.17V51.93A3.53,3.53,0,0,1,52,55.47H33.27a3.53,3.53,0,0,1-3.53-3.54V33.17a3.53,3.53,0,0,1,3.53-3.54H52A3.53,3.53,0,0,1,55.48,33.17Z"/><path class="cls-3" d="M25.76,62.9V81.65a3.53,3.53,0,0,1-3.53,3.54H3.54A3.53,3.53,0,0,1,0,81.65V62.9a3.53,3.53,0,0,1,3.53-3.54H22.23A3.53,3.53,0,0,1,25.76,62.9Z"/><path class="cls-4" d="M85,33.17V51.93a3.53,3.53,0,0,1-3.53,3.54H62.81a3.53,3.53,0,0,1-3.53-3.54V33.17a3.53,3.53,0,0,1,3.53-3.54H81.5A3.53,3.53,0,0,1,85,33.17Z"/><rect class="cls-5" x="0.18" y="0.18" width="12.81" height="12.81" rx="3.56" ry="3.56"/><path class="cls-4" d="M55.48,62.72V81.48A3.53,3.53,0,0,1,52,85H33.27a3.53,3.53,0,0,1-3.53-3.54V62.72a3.53,3.53,0,0,1,3.53-3.54H52A3.53,3.53,0,0,1,55.48,62.72Z"/><path class="cls-4" d="M85,63.08V81.83a3.53,3.53,0,0,1-3.53,3.54H62.81a3.53,3.53,0,0,1-3.53-3.54V63.08a3.53,3.53,0,0,1,3.53-3.54H81.5A3.53,3.53,0,0,1,85,63.08Z"/><rect class="cls-6" y="29.59" width="25.12" height="25.12" rx="3.44" ry="3.44"/><rect class="cls-7" x="29.59" y="29.59" width="25.12" height="25.12" rx="3.44" ry="3.44"/><rect class="cls-6" x="29.59" width="25.12" height="25.12" rx="3.44" ry="3.44"/><rect class="cls-7" y="59.19" width="25.12" height="25.12" rx="3.44" ry="3.44"/><rect class="cls-8" x="29.59" y="59.19" width="25.12" height="25.12" rx="3.44" ry="3.44"/><rect class="cls-8" x="59.19" y="29.59" width="25.12" height="25.12" rx="3.44" ry="3.44"/><rect class="cls-7" x="59.19" width="25.12" height="25.12" rx="3.44" ry="3.44"/><rect class="cls-8" x="59.19" y="59.53" width="25.12" height="25.12" rx="3.44" ry="3.44"/><rect class="cls-9" width="12.39" height="12.39" rx="3.44" ry="3.44"/><path class="cls-9" d="M322.78,106.66V90.51h-3v16.15ZM304.23,98V93.65a.14.14,0,0,1,.16-.16h9.89a.14.14,0,0,1,.16.16V98a.14.14,0,0,1-.16.16h-9.89A.14.14,0,0,1,304.23,98Zm12.27-6.55a3,3,0,0,0-2.22-.92h-13v16.13h3v-5.54h5.29l4.67,5.54h3.23v-.76l-4-4.78h.88A3.14,3.14,0,0,0,317.42,98V93.65A3,3,0,0,0,316.5,91.45Zm-31.38,15.21h3v-6.59h9.55v-3h-9.55V93.47H300v-3H285.12Zm-11.57-8.1v2.94h9.17V98.56Zm-1.37,8.1v-3H259V90.49h-3v16.17Zm-21.76-3h-9.91a.14.14,0,0,1-.16-.16v-13h-3v13a3.1,3.1,0,0,0,3.12,3.12h9.91a3.12,3.12,0,0,0,3.12-3.12v-13h-3v13C250.56,103.65,250.52,103.7,250.43,103.7Zm-25.14-4.15V97.22c0-.09.05-.13.16-.13h2.78l.13.13v2.49h-2.92A.14.14,0,0,1,225.28,99.55Zm-1.38-3.86a2.94,2.94,0,0,0-.91,2.18v1.26a3,3,0,0,0,.91,2.2,3,3,0,0,0,2.19.9h8.72V93.61a3.1,3.1,0,0,0-3.09-3.1h-9.8a3.1,3.1,0,0,0-3.1,3.1v10a3.1,3.1,0,0,0,3.1,3.1h12.9v-2.94h-12.9a.14.14,0,0,1-.16-.16v-10a.14.14,0,0,1,.16-.16h9.8a.14.14,0,0,1,.16.16v6.1h-1.23V97.87a3.06,3.06,0,0,0-3.07-3.07h-1.48A3,3,0,0,0,223.9,95.69Z"/></g></g></svg>